<svg aria-hidden="true" style="position: absolute; width: 0; height: 0; overflow: hidden;" version="1.1" xmlns="http://www.w3.org/2000/svg" xmlns:xlink="http://www.w3.org/1999/xlink">
<defs>
<symbol id="icon-envelope" viewBox="0 0 20 20">
<title>envelope</title>
<path d="M18 2c1.105 0 2 0.895 2 2v0 12c0 1.105-0.895 2-2 2v0h-16c-1.105 0-2-0.895-2-2v0-12c0-1.1 0.9-2 2-2h16zM13.63 11.1l6.37 4.9v-2l-5.12-3.9 5.12-4.1v-2l-10 8-10-8v2l5.12 4.1-5.12 3.9v2l6.37-4.9 3.63 2.9 3.63-2.9z"></path>
</symbol>
<symbol id="icon-link" viewBox="0 0 32 32">
<title>link</title>
<path d="M13.757 19.868c-0.416 0-0.832-0.159-1.149-0.476-2.973-2.973-2.973-7.81 0-10.783l6-6c1.44-1.44 3.355-2.233 5.392-2.233s3.951 0.793 5.392 2.233c2.973 2.973 2.973 7.81 0 10.783l-2.743 2.743c-0.635 0.635-1.663 0.635-2.298 0s-0.635-1.663 0-2.298l2.743-2.743c1.706-1.706 1.706-4.481 0-6.187-0.826-0.826-1.925-1.281-3.094-1.281s-2.267 0.455-3.094 1.281l-6 6c-1.706 1.706-1.706 4.481 0 6.187 0.635 0.635 0.635 1.663 0 2.298-0.317 0.317-0.733 0.476-1.149 0.476z"></path>
<path d="M8 31.625c-2.037 0-3.952-0.793-5.392-2.233-2.973-2.973-2.973-7.81 0-10.783l2.743-2.743c0.635-0.635 1.664-0.635 2.298 0s0.635 1.663 0 2.298l-2.743 2.743c-1.706 1.706-1.706 4.481 0 6.187 0.826 0.826 1.925 1.281 3.094 1.281s2.267-0.455 3.094-1.281l6-6c1.706-1.706 1.706-4.481 0-6.187-0.635-0.635-0.635-1.663 0-2.298s1.663-0.635 2.298 0c2.973 2.973 2.973 7.81 0 10.783l-6 6c-1.44 1.44-3.355 2.233-5.392 2.233z"></path>
</symbol>
<symbol id="icon-phone" viewBox="0 0 32 32">
<title>phone</title>
<path d="M22 20c-2 2-2 4-4 4s-4-2-6-4-4-4-4-6 2-2 4-4-4-8-6-8-6 6-6 6c0 4 4.109 12.109 8 16s12 8 16 8c0 0 6-4 6-6s-6-8-8-6z"></path>
</symbol>
<symbol id="icon-github" viewBox="0 0 32.58 31.77">
 <path class="acls-1" d="M16.29 0a16.29 16.29 0 0 0-5.15 31.75c.81.15 1.11-.36 1.11-.79v-2.77c-4.53 1-5.49-2.18-5.49-2.18a4.36 4.36 0 0 0-1.81-2.39c-1.47-1 .12-1 .12-1a3.43 3.43 0 0 1 2.49 1.68 3.48 3.48 0 0 0 4.74 1.36 3.46 3.46 0 0 1 1-2.18c-3.62-.41-7.42-1.81-7.42-8.05a6.3 6.3 0 0 1 1.67-4.37 5.93 5.93 0 0 1 .16-4.31s1.37-.44 4.48 1.67a15.41 15.41 0 0 1 8.16 0c3.11-2.11 4.47-1.67 4.47-1.67a5.9 5.9 0 0 1 .17 4.31 6.3 6.3 0 0 1 1.67 4.37c0 6.26-3.81 7.63-7.44 8a3.85 3.85 0 0 1 1.11 3v4.47c0 .53.29.94 1.12.79A16.3 16.3 0 0 0 16.29-.06z" fill="#616161" fill-rule="evenodd"/>
 </symbol>
</defs>
</svg>
